<?xml version="1.0" standalone="no"?>
<!DOCTYPE svg PUBLIC "-//W3C//DTD SVG 20010904//EN"
 "http://www.w3.org/TR/2001/REC-SVG-20010904/DTD/svg10.dtd">
<svg version="1.0" xmlns="http://www.w3.org/2000/svg"
 width="200.000000pt" height="200.000000pt" viewBox="0 0 200.000000 200.000000"
 preserveAspectRatio="xMidYMid meet">
<metadata>
Created by potrace 1.14, written by Peter Selinger 2001-2017
</metadata>
<g transform="translate(0.000000,200.000000) scale(0.100000,-0.100000)"
fill="#000000" stroke="none">
<path d="M0 1000 l0 -1000 1000 0 1000 0 0 1000 0 1000 -1000 0 -1000 0 0
-1000z m718 548 c7 -7 12 -19 12 -27 0 -9 -51 -66 -112 -128 l-113 -113 113
-113 c61 -62 112 -119 112 -128 0 -19 -20 -39 -39 -39 -23 0 -271 251 -271
274 0 21 255 286 275 286 6 0 16 -5 23 -12z m500 -14 c4 -28 -372 -534 -397
-534 -20 0 -41 19 -41 37 0 7 86 127 191 268 173 231 194 256 218 253 18 -2
27 -10 29 -24z m239 -107 c73 -73 133 -139 133 -147 0 -17 -247 -268 -272
-276 -22 -7 -48 12 -48 35 0 8 51 66 112 128 l113 113 -113 113 c-61 62 -112
120 -112 129 0 16 25 37 45 38 5 0 69 -60 142 -133z m-657 -727 c0 -17 -7 -20
-45 -20 -41 0 -45 -2 -45 -25 0 -22 4 -25 40 -25 33 0 40 -3 40 -20 0 -17 -7
-20 -40 -20 l-40 0 0 -45 c0 -41 -2 -45 -25 -45 l-25 0 0 110 0 110 70 0 c63
0 70 -2 70 -20z m142 -47 c14 -13 18 -31 18 -86 l0 -69 -27 5 c-15 3 -36 2
-47 -3 -35 -13 -66 5 -66 38 0 33 24 59 59 64 14 1 26 9 29 16 3 10 -5 13 -34
10 -25 -2 -39 2 -42 11 -11 32 78 44 110 14z m108 7 c0 -7 6 -7 19 0 31 16 69
12 81 -9 5 -11 10 -49 10 -85 0 -63 -1 -66 -25 -66 -23 0 -24 4 -27 63 -3 54
-5 62 -23 62 -18 0 -20 -8 -23 -62 -3 -59 -4 -63 -27 -63 -25 0 -25 1 -25 85
0 78 2 85 20 85 11 0 20 -5 20 -10z m272 -7 c14 -13 18 -31 18 -86 l0 -69 -27
5 c-15 3 -36 2 -47 -3 -35 -13 -66 5 -66 38 0 33 24 59 60 64 33 4 27 23 -8
24 -43 1 -59 14 -37 31 26 18 85 16 107 -4z"/>
<path d="M888 572 c-9 -2 -19 -10 -22 -18 -7 -18 21 -31 36 -16 15 15 6 38
-14 34z"/>
<path d="M1268 572 c-9 -2 -19 -10 -22 -18 -7 -18 21 -31 36 -16 15 15 6 38
-14 34z"/>
</g>
</svg>
